<svg width="45" height="46" viewBox="0 0 45 46" fill="none" xmlns="http://www.w3.org/2000/svg">
<path d="M4.91667 45.75C3.56458 45.75 2.40712 45.2523 1.44427 44.2568C0.481424 43.2613 0 42.0646 0 40.6667V5.08333C0 3.68542 0.481424 2.48872 1.44427 1.49323C2.40712 0.497743 3.56458 0 4.91667 0H39.3333C40.6854 0 41.8429 0.497743 42.8057 1.49323C43.7686 2.48872 44.25 3.68542 44.25 5.08333V40.6667C44.25 42.0646 43.7686 43.2613 42.8057 44.2568C41.8429 45.2523 40.6854 45.75 39.3333 45.75H4.91667ZM4.91667 40.6667H39.3333V10.1667H4.91667V40.6667ZM9.83333 22.875V17.7917H34.4167V22.875H9.83333ZM9.83333 33.0417V27.9583H24.5833V33.0417H9.83333Z" fill="#A9C2D4"/>
</svg>
