<svg width="60" height="61" viewBox="0 0 60 61" fill="none" xmlns="http://www.w3.org/2000/svg">
<path d="M49.5 53.3164L33.2919 37.1083C32.0419 38.1637 30.591 38.9902 28.9394 39.5877C27.2877 40.1847 25.5302 40.4833 23.6669 40.4833C19.1485 40.4833 15.3244 38.9172 12.1944 35.7852C9.06479 32.6535 7.5 28.8585 7.5 24.4002C7.5 19.9418 9.06604 16.1466 12.1981 13.0145C15.3298 9.88245 19.1319 8.31641 23.6044 8.31641C28.0765 8.31641 31.8715 9.88245 34.9894 13.0145C38.1077 16.1466 39.6669 19.9439 39.6669 24.4064C39.6669 26.2077 39.3752 27.9347 38.7919 29.5877C38.2085 31.2402 37.3612 32.761 36.25 34.1502L52.5 50.3164L49.5 53.3164ZM23.625 36.3164C26.9237 36.3164 29.7275 35.1533 32.0363 32.827C34.3454 30.5008 35.5 27.6918 35.5 24.4002C35.5 21.1085 34.3454 18.2993 32.0363 15.9727C29.7275 13.6464 26.9237 12.4833 23.625 12.4833C20.3033 12.4833 17.4798 13.6464 15.1544 15.9727C12.8294 18.2993 11.6669 21.1085 11.6669 24.4002C11.6669 27.6918 12.8294 30.5008 15.1544 32.827C17.4798 35.1533 20.3033 36.3164 23.625 36.3164Z" fill="#384994" fill-opacity="0.35"/>
</svg>
