<svg width="76" height="75" viewBox="0 0 76 75" fill="none" xmlns="http://www.w3.org/2000/svg">
<path d="M12.668 59.375V53.125H19.0013V31.25C19.0013 26.9271 20.3207 23.0859 22.9596 19.7266C25.5985 16.3672 29.0291 14.1667 33.2513 13.125V10.9375C33.2513 9.63542 33.7131 8.52865 34.6367 7.61719C35.5603 6.70573 36.6819 6.25 38.0013 6.25C39.3207 6.25 40.4423 6.70573 41.3659 7.61719C42.2895 8.52865 42.7513 9.63542 42.7513 10.9375V13.125C46.9735 14.1667 50.4041 16.3672 53.043 19.7266C55.6819 23.0859 57.0013 26.9271 57.0013 31.25V53.125H63.3346V59.375H12.668ZM38.0013 68.75C36.2596 68.75 34.7687 68.138 33.5284 66.9141C32.2881 65.6901 31.668 64.2188 31.668 62.5H44.3346C44.3346 64.2188 43.7145 65.6901 42.4742 66.9141C41.2339 68.138 39.743 68.75 38.0013 68.75ZM25.3346 53.125H50.668V31.25C50.668 27.8125 49.4277 24.8698 46.9471 22.4219C44.4666 19.974 41.4846 18.75 38.0013 18.75C34.518 18.75 31.536 19.974 29.0555 22.4219C26.5749 24.8698 25.3346 27.8125 25.3346 31.25V53.125Z" fill="#BFD4E3"/>
</svg>
